<svg width="16" height="20" viewBox="0 0 16 20" fill="none" xmlns="http://www.w3.org/2000/svg">
<path d="M12.8249 3.05281V2.55776H10.8271V1.9802C10.8271 1.84818 10.7143 1.73267 10.5854 1.73267H5.20408C5.07519 1.73267 4.96241 1.83168 4.96241 1.9802V2.55776H2.98067V3.05281H4.96241V3.38284H2.98067V3.87789H4.96241V4.45545C4.96241 4.58746 5.07519 4.70297 5.20408 4.68647H5.44576L5.80021 5.67657C5.83244 5.77558 5.92911 5.82508 6.02578 5.82508H7.25027V15.4125H6.65414C6.52524 15.4125 6.42857 15.5116 6.41246 15.6436V16.1386H2.98067V16.6337H6.42857V16.9637H2.98067V17.4587H6.42857V17.8713C6.42857 18.0033 6.52524 18.1188 6.67025 18.1188H9.13534C9.26423 18.1188 9.37701 18.0198 9.37701 17.8713V17.4587H12.8249V16.9637H9.3609V16.6337H12.8088V16.1386H9.3609V15.6436C9.3609 15.5116 9.26423 15.4125 9.13534 15.4125H8.53921V5.80858H9.74758C9.84425 5.80858 9.94092 5.74257 9.97315 5.66007L10.3437 4.66997H10.6015C10.7304 4.66997 10.8432 4.57096 10.8432 4.43894V3.86139H12.8249V3.36634H10.8271V3.0363L12.8249 3.05281ZM8.89366 15.8911V17.5908H6.91192V15.8911H8.89366ZM7.73362 15.396V5.80858H8.05585V15.396H7.73362ZM9.58647 5.33003H6.20301L5.96133 4.66997H9.82814L9.58647 5.33003ZM10.3598 4.19142H5.42965V2.22772H10.3437V4.19142H10.3598Z" fill="#B7B4B4"/>
<path d="M2.49731 0H0.708915C0.322234 0 0 0.330033 0 0.726073V5.69307C0 6.08911 0.322234 6.41914 0.708915 6.41914H2.49731C2.90011 6.41914 3.22234 6.08911 3.22234 5.69307V0.726073C3.20623 0.313531 2.884 0 2.49731 0ZM1.35338 5.94059H0.708915C0.580022 5.94059 0.483351 5.82508 0.483351 5.69307V5.033H0.918367C1.04726 5.033 1.16004 4.91749 1.16004 4.78548C1.16004 4.65347 1.04726 4.53795 0.918367 4.53795H0.483351V3.48185H0.918367C1.04726 3.48185 1.16004 3.36634 1.16004 3.23432C1.16004 3.10231 1.04726 2.9868 0.918367 2.9868H0.483351V1.9637H0.918367C1.04726 1.9637 1.16004 1.84819 1.16004 1.71617C1.16004 1.58416 1.04726 1.50165 0.918367 1.50165H0.483351V0.726073C0.483351 0.594059 0.580022 0.49505 0.708915 0.49505H1.35338V5.94059ZM2.73899 1.50165H2.30397C2.17508 1.50165 2.0623 1.61716 2.0623 1.74918C2.0623 1.88119 2.17508 1.9967 2.30397 1.9967H2.73899V3.0198H2.30397C2.17508 3.0198 2.0623 3.13531 2.0623 3.26733C2.0623 3.39934 2.17508 3.51485 2.30397 3.51485H2.73899V4.57096H2.30397C2.17508 4.57096 2.0623 4.68647 2.0623 4.81848C2.0623 4.9505 2.17508 5.06601 2.30397 5.06601H2.73899V5.72607C2.73899 5.85809 2.62621 5.9736 2.49731 5.9736H1.83673V0.49505H2.49731C2.62621 0.49505 2.73899 0.594059 2.73899 0.726073V1.50165Z" fill="#B7B4B4"/>
<path d="M15.0806 0H13.2922C12.8894 0 12.5671 0.330033 12.5671 0.726073V5.69307C12.5671 6.10561 12.8894 6.41914 13.2922 6.41914H15.0806C15.4672 6.41914 15.7895 6.08911 15.7895 5.69307V0.726073C15.7895 0.330033 15.4672 0 15.0806 0ZM13.9689 5.94059H13.3083C13.1794 5.94059 13.0666 5.84158 13.0666 5.69307V5.033H13.5016C13.6305 5.033 13.7433 4.91749 13.7433 4.78548C13.7433 4.65347 13.6305 4.53795 13.5016 4.53795H13.0505V3.48185H13.4855C13.6144 3.48185 13.7272 3.36634 13.7272 3.23432C13.7272 3.10231 13.6144 2.9868 13.4855 2.9868H13.0505V1.9637H13.4855C13.6144 1.9637 13.7272 1.84819 13.7272 1.71617C13.7272 1.58416 13.6144 1.46865 13.4855 1.46865H13.0505V0.726073C13.0505 0.594059 13.1633 0.478548 13.2922 0.478548H13.9527V5.94059H13.9689ZM14.8872 1.50165C14.7583 1.50165 14.6455 1.61716 14.6455 1.74918C14.6455 1.88119 14.7583 1.9967 14.8872 1.9967H15.3222V3.0198H14.8872C14.7583 3.0198 14.6455 3.13531 14.6455 3.26733C14.6455 3.39934 14.7583 3.51485 14.8872 3.51485H15.3222V4.57096H14.8872C14.7583 4.57096 14.6455 4.68647 14.6455 4.81848C14.6455 4.9505 14.7583 5.06601 14.8872 5.06601H15.3222V5.72607C15.3222 5.85809 15.2256 5.9736 15.0967 5.9736H14.4522V0.49505H15.0967C15.2256 0.49505 15.3383 0.610561 15.3383 0.742574V1.50165H14.8872Z" fill="#B7B4B4"/>
<path d="M2.49731 13.5809H0.708915C0.322234 13.5809 0 13.9109 0 14.3069V19.2739C0 19.67 0.322234 20 0.708915 20H2.49731C2.90011 20 3.22234 19.67 3.22234 19.2739V14.3069C3.20623 13.8944 2.884 13.5809 2.49731 13.5809ZM1.35338 19.505H0.708915C0.580022 19.505 0.46724 19.3894 0.46724 19.2574V18.6139H0.902256C1.03115 18.6139 1.14393 18.4984 1.14393 18.3663C1.14393 18.2343 1.03115 18.1188 0.902256 18.1188H0.483351V17.0627H0.918367C1.04726 17.0627 1.16004 16.9472 1.16004 16.8152C1.16004 16.6832 1.04726 16.5677 0.918367 16.5677H0.483351V15.5116H0.918367C1.04726 15.5116 1.16004 15.396 1.16004 15.264C1.16004 15.132 1.04726 15.0165 0.918367 15.0165H0.483351V14.2739C0.483351 14.1419 0.580022 14.0264 0.708915 14.0264H1.35338V19.505ZM2.73899 15.033H2.30397C2.17508 15.033 2.0623 15.1485 2.0623 15.2805C2.0623 15.4125 2.17508 15.5281 2.30397 15.5281H2.73899V16.5842H2.30397C2.17508 16.5842 2.0623 16.6997 2.0623 16.8317C2.0623 16.9637 2.17508 17.0792 2.30397 17.0792H2.73899V18.1353H2.30397C2.17508 18.1353 2.0623 18.2508 2.0623 18.3828C2.0623 18.5149 2.17508 18.6304 2.30397 18.6304H2.73899V19.2739C2.73899 19.4059 2.62621 19.5215 2.49731 19.5215H1.83673V14.0759H2.49731C2.62621 14.0759 2.73899 14.1749 2.73899 14.3234V15.033Z" fill="#B7B4B4"/>
<path d="M15.0806 13.5809H13.2922C12.8894 13.5809 12.5671 13.9109 12.5671 14.3069V19.2739C12.5671 19.6865 12.8894 20 13.2922 20H15.0806C15.4672 20 15.7895 19.67 15.7895 19.2739V14.3069C15.7895 13.8944 15.4672 13.5809 15.0806 13.5809ZM13.9689 19.505H13.3083C13.1794 19.505 13.0666 19.3894 13.0666 19.2574V18.6139H13.5016C13.6305 18.6139 13.7433 18.4984 13.7433 18.3663C13.7433 18.2343 13.6305 18.1188 13.5016 18.1188H13.0505V17.0627H13.4855C13.6144 17.0627 13.7272 16.9472 13.7272 16.8152C13.7272 16.6832 13.6144 16.5677 13.4855 16.5677H13.0505V15.5116H13.4855C13.6144 15.5116 13.7272 15.396 13.7272 15.264C13.7272 15.132 13.6144 15.0165 13.4855 15.0165H13.0505V14.2739C13.0505 14.1419 13.1633 14.0264 13.2922 14.0264H13.9527V19.505H13.9689ZM15.3222 15.033H14.8872C14.7583 15.033 14.6455 15.1485 14.6455 15.2805C14.6455 15.4125 14.7583 15.5281 14.8872 15.5281H15.3222V16.5842H14.8872C14.7583 16.5842 14.6455 16.6997 14.6455 16.8317C14.6455 16.9637 14.7583 17.0792 14.8872 17.0792H15.3222V18.1353H14.8872C14.7583 18.1353 14.6455 18.2508 14.6455 18.3828C14.6455 18.5149 14.7583 18.6304 14.8872 18.6304H15.3222V19.2739C15.3222 19.4059 15.2095 19.5215 15.0806 19.5215H14.4361V14.0759H15.0806C15.2095 14.0759 15.3222 14.1749 15.3222 14.3069V15.033Z" fill="#B7B4B4"/>
</svg>
