<svg width="23" height="28" viewBox="0 0 23 28" fill="none" xmlns="http://www.w3.org/2000/svg">
<path d="M20.125 28H2.875C1.2903 28 0 26.691 0 25.0833V2.91667C0 1.309 1.2903 0 2.875 0H20.125C21.7097 0 23 1.309 23 2.91667V25.0833C23 26.691 21.7097 28 20.125 28ZM2.875 1.16667C1.92395 1.16667 1.15 1.95183 1.15 2.91667V25.0833C1.15 26.0482 1.92395 26.8333 2.875 26.8333H20.125C21.076 26.8333 21.85 26.0482 21.85 25.0833V2.91667C21.85 1.95183 21.076 1.16667 20.125 1.16667H2.875Z" fill="white"/>
<path d="M17.825 9.33333H5.175C4.22395 9.33333 3.45 8.54817 3.45 7.58333V5.25C3.45 4.28517 4.22395 3.5 5.175 3.5H17.825C18.7761 3.5 19.55 4.28517 19.55 5.25V7.58333C19.55 8.54817 18.7761 9.33333 17.825 9.33333ZM5.175 4.66667C4.8576 4.66667 4.6 4.928 4.6 5.25V7.58333C4.6 7.90533 4.8576 8.16667 5.175 8.16667H17.825C18.1424 8.16667 18.4 7.90533 18.4 7.58333V5.25C18.4 4.928 18.1424 4.66667 17.825 4.66667H5.175Z" fill="white"/>
<path d="M6.9 16.3333C6.5826 16.3333 6.325 16.072 6.325 15.75V12.25C6.325 11.928 6.5826 11.6667 6.9 11.6667C7.2174 11.6667 7.475 11.928 7.475 12.25V15.75C7.475 16.072 7.2174 16.3333 6.9 16.3333Z" fill="white"/>
<path d="M8.625 14.5833H5.175C4.8576 14.5833 4.6 14.322 4.6 14C4.6 13.678 4.8576 13.4167 5.175 13.4167H8.625C8.9424 13.4167 9.2 13.678 9.2 14C9.2 14.322 8.9424 14.5833 8.625 14.5833Z" fill="white"/>
<path d="M17.825 14.5833H14.375C14.0576 14.5833 13.8 14.322 13.8 14C13.8 13.678 14.0576 13.4167 14.375 13.4167H17.825C18.1424 13.4167 18.4 13.678 18.4 14C18.4 14.322 18.1424 14.5833 17.825 14.5833Z" fill="white"/>
<path d="M17.825 19.8333H14.375C14.0576 19.8333 13.8 19.572 13.8 19.25C13.8 18.928 14.0576 18.6667 14.375 18.6667H17.825C18.1424 18.6667 18.4 18.928 18.4 19.25C18.4 19.572 18.1424 19.8333 17.825 19.8333Z" fill="white"/>
<path d="M17.825 23.3333H14.375C14.0576 23.3333 13.8 23.072 13.8 22.75C13.8 22.428 14.0576 22.1667 14.375 22.1667H17.825C18.1424 22.1667 18.4 22.428 18.4 22.75C18.4 23.072 18.1424 23.3333 17.825 23.3333Z" fill="white"/>
<path d="M5.175 23.3333C5.0278 23.3333 4.8806 23.2762 4.7679 23.163C4.54365 22.9355 4.54365 22.5657 4.7679 22.3382L8.2179 18.8382C8.44215 18.6107 8.8067 18.6107 9.03095 18.8382C9.2552 19.0657 9.2552 19.4355 9.03095 19.663L5.58095 23.163C5.4694 23.2762 5.3222 23.3333 5.175 23.3333Z" fill="white"/>
<path d="M8.625 23.3333C8.4778 23.3333 8.3306 23.2762 8.2179 23.163L4.7679 19.663C4.54365 19.4355 4.54365 19.0657 4.7679 18.8382C4.99215 18.6107 5.3567 18.6107 5.58095 18.8382L9.03095 22.3382C9.2552 22.5657 9.2552 22.9355 9.03095 23.163C8.9194 23.2762 8.7722 23.3333 8.625 23.3333Z" fill="white"/>
</svg>
