<svg width="30" height="25" viewBox="0 0 30 25" fill="none" xmlns="http://www.w3.org/2000/svg">
<path d="M23.1463 20.7768C20.9644 22.9809 18.0666 24.1951 14.9828 24.1951C8.62235 24.1951 3.44665 18.965 3.44062 12.5358L5.79445 14.9189C5.95046 15.0756 6.2015 15.0756 6.35735 14.9189C6.51135 14.7611 6.51135 14.5064 6.35735 14.3497L3.23684 11.1932L0.117013 14.3497C-0.0390042 14.5064 -0.0390042 14.7613 0.117013 14.9189C0.193932 14.9977 0.295988 15.0361 0.397038 15.0361C0.5001 15.0361 0.601988 14.9966 0.678069 14.9189L2.65987 12.914C2.86683 19.6122 8.30546 25 14.979 25C18.2758 25 21.3745 23.7019 23.7064 21.3451C23.8614 21.1884 23.8614 20.9336 23.7064 20.777C23.5554 20.6191 23.3023 20.6191 23.1463 20.7768Z" fill="white"/>
<path d="M29.8828 10.0811C29.7288 9.92439 29.4768 9.92439 29.3209 10.0811L27.341 12.0849C27.132 5.38673 21.6934 0 15.0209 0C11.7221 0 8.62435 1.2981 6.29247 3.65487C6.13646 3.8116 6.13646 4.06644 6.29247 4.22301C6.44648 4.38076 6.69953 4.38076 6.85437 4.22301C9.03525 2.0189 11.934 0.80468 15.0178 0.80468C21.3773 0.80468 26.554 6.03383 26.5621 12.464L24.2062 10.081C24.0512 9.92422 23.7992 9.92422 23.6433 10.081C23.4893 10.2387 23.4893 10.4934 23.6433 10.6501L26.7642 13.8056L29.884 10.6501C30.0389 10.4935 30.0389 10.2387 29.8828 10.0811Z" fill="white"/>
</svg>
