<svg width="20" height="16" viewBox="0 0 20 16" fill="none" xmlns="http://www.w3.org/2000/svg">
<path d="M18.0966 6.39998C17.4345 6.39998 16.8828 6.97141 16.8828 7.65713V8.91427H16.0828V7.34284C16.0828 6.91427 15.9172 6.4857 15.6138 6.17141L14.7034 5.22855C14.4 4.91427 13.9862 4.74284 13.5724 4.74284H11.2552V3.0857H12.469C13.131 3.0857 13.6828 2.51427 13.6828 1.82855C13.6828 1.14284 13.131 0.571411 12.469 0.571411H7.64138C6.97931 0.571411 6.42759 1.14284 6.42759 1.82855C6.42759 2.51427 6.97931 3.0857 7.64138 3.0857H8.85517V4.74284H7.33793C6.92414 4.74284 6.51034 4.91427 6.2069 5.22855L5.07586 6.39998H4.41379C3.75172 6.39998 3.2 6.97141 3.2 7.65713V8.91427H2.42759V7.65713C2.42759 6.97141 1.87586 6.39998 1.21379 6.39998C0.551724 6.39998 0 6.97141 0 7.65713V12.6571C0 13.3428 0.551724 13.9143 1.21379 13.9143C1.87586 13.9143 2.42759 13.3428 2.42759 12.6571V11.4H3.22759V12.6571C3.22759 13.3428 3.77931 13.9143 4.44138 13.9143H5.07586L6.2069 15.0857C6.51034 15.4 6.92414 15.5714 7.33793 15.5714H12.7724C13.1862 15.5714 13.6 15.4 13.9034 15.0857L15.6138 13.3143C15.9172 13 16.0828 12.5714 16.0828 12.1428V11.4H16.8828V12.6571C16.8828 13.3428 17.4345 13.9143 18.0966 13.9143C18.7586 13.9143 19.3103 13.3428 19.3103 12.6571V7.65713C19.3103 6.97141 18.7586 6.39998 18.0966 6.39998ZM18.5103 12.6571C18.5103 12.8857 18.3172 13.0857 18.0966 13.0857C17.8759 13.0857 17.6828 12.8857 17.6828 12.6571V11C17.6828 10.7714 17.4897 10.5714 17.269 10.5714H15.669C15.4483 10.5714 15.2552 10.7714 15.2552 11V12.1428C15.2552 12.3714 15.1724 12.5714 15.0069 12.7428L13.2966 14.5143C13.1586 14.6571 12.9379 14.7714 12.7172 14.7714H7.33793C7.11724 14.7714 6.92414 14.6857 6.75862 14.5143L5.51724 13.2C5.43448 13.1143 5.35172 13.0857 5.24138 13.0857H4.41379C4.1931 13.0857 4 12.8857 4 12.6571V11C4 10.7714 3.8069 10.5714 3.58621 10.5714H2.01379C1.7931 10.5714 1.6 10.7714 1.6 11V12.6571C1.6 12.8857 1.4069 13.0857 1.18621 13.0857C0.965517 13.0857 0.772414 12.8857 0.772414 12.6571V7.65713C0.772414 7.42855 0.965517 7.22855 1.18621 7.22855C1.4069 7.22855 1.6 7.42855 1.6 7.65713V9.31427C1.6 9.54284 1.7931 9.74284 2.01379 9.74284H3.61379C3.83448 9.74284 4.02759 9.54284 4.02759 9.31427V7.65713C4.02759 7.42855 4.22069 7.22855 4.44138 7.22855H5.24138C5.35172 7.22855 5.46207 7.17141 5.51724 7.11427L6.78621 5.79998C6.92414 5.65713 7.14483 5.54284 7.36552 5.54284H9.26896C9.48965 5.54284 9.68276 5.34284 9.68276 5.11427V2.59998C9.68276 2.37141 9.48965 2.17141 9.26896 2.17141H7.66897C7.44828 2.17141 7.25517 1.97141 7.25517 1.74284C7.25517 1.51427 7.44828 1.31427 7.66897 1.31427H12.4966C12.7172 1.31427 12.9103 1.51427 12.9103 1.74284C12.9103 1.97141 12.7172 2.17141 12.4966 2.17141H10.8966C10.6759 2.17141 10.4828 2.37141 10.4828 2.59998V5.14284C10.4828 5.37141 10.6759 5.57141 10.8966 5.57141H13.6276C13.8483 5.57141 14.0414 5.65713 14.2069 5.82855L15.1172 6.77141C15.2552 6.91427 15.3655 7.14284 15.3655 7.37141V9.34284C15.3655 9.57141 15.5586 9.77141 15.7793 9.77141H17.3793C17.6 9.77141 17.7931 9.57141 17.7931 9.34284V7.6857C17.7931 7.45713 17.9862 7.25713 18.2069 7.25713C18.4276 7.25713 18.6207 7.45713 18.6207 7.6857L18.5103 12.6571Z" fill="#B7B4B4"/>
</svg>
