<svg width="16" height="20" viewBox="0 0 16 20" fill="none" xmlns="http://www.w3.org/2000/svg">
<path d="M5.5721 1.45544C4.90891 0.351406 3.6152 -0.206028 2.35735 0.0698658C1.0995 0.34576 0.158135 1.39364 0.0178989 2.67377C-0.122184 3.9539 0.570145 5.18062 1.73842 5.72233C1.95084 5.81282 2.12296 5.97763 2.22291 6.18562L2.52094 6.85795C2.68101 7.22007 3.03976 7.45339 3.4356 7.45339C3.46062 7.45339 3.48565 7.44743 3.51052 7.44576L6.37445 13.9077C6.13152 14.0217 5.94153 14.2245 5.84372 14.4743C5.76574 14.7049 5.76574 14.9546 5.84372 15.1851C5.87866 15.2942 5.92337 15.4001 5.97709 15.5015C5.9162 15.5706 5.86524 15.6478 5.82541 15.7308C5.6429 16.0937 5.68502 16.529 5.93375 16.8503C5.94565 16.8655 5.96137 16.8765 5.97373 16.8912C5.67724 17.0973 5.50953 17.4431 5.53135 17.8035C5.54295 18.0295 5.61498 18.2482 5.73965 18.437C5.69738 18.4804 5.65923 18.5279 5.62596 18.5786C5.44529 18.8641 5.43446 19.2251 5.59743 19.521C5.7604 19.8167 6.0717 20.0005 6.40939 20H14.7946C15.3465 20 15.6816 19.423 15.7109 19.0063C15.7355 18.6147 15.6253 18.2265 15.3985 17.9062C15.1788 17.5882 14.8492 17.3627 14.4732 17.2729C14.2112 17.2307 13.9435 17.2371 13.6838 17.2919C13.7448 16.875 13.6382 16.4509 13.3872 16.1125C13.0588 15.6571 12.4972 15.4322 11.9454 15.5347C11.9563 15.476 11.963 15.4165 11.9657 15.3568C11.9735 14.9768 11.8255 14.6101 11.556 14.342C11.2525 14.0544 10.829 13.9303 10.4182 14.0088C10.4134 13.9848 10.4071 13.9613 10.3996 13.9381L10.1297 13.3314C9.90537 12.8271 9.31559 12.5992 8.8105 12.8217L5.94901 6.36599C6.25939 6.07758 6.35156 5.62345 6.17806 5.23693L5.87164 4.54551C5.78909 4.34348 5.7836 4.11809 5.85638 3.91224C6.11778 3.09036 6.01417 2.19584 5.5721 1.45544ZM0.864503 3.94489C0.59395 3.33466 0.597612 2.63775 0.874574 2.03057C1.15154 1.42324 1.6754 0.963622 2.31356 0.767993C2.53345 0.69963 2.7625 0.665144 2.99292 0.665601C3.81312 0.665144 4.57381 1.09394 4.99803 1.79603C5.34671 2.37056 5.42805 3.06838 5.22097 3.70776C5.1665 3.87882 5.13979 4.05736 5.14208 4.23681L2.47027 5.42096C2.33614 5.29613 2.18309 5.19328 2.01691 5.11622C1.50297 4.87909 1.09309 4.46265 0.864503 3.94489ZM3.13117 6.58725L2.86122 5.97763L5.29804 4.89725L5.56798 5.50656C5.60399 5.58744 5.60613 5.6793 5.57439 5.7617C5.54249 5.84426 5.47917 5.91079 5.39829 5.94665L3.56988 6.75694C3.48916 6.79325 3.3973 6.79554 3.31489 6.76335C3.2328 6.7313 3.16672 6.66797 3.13117 6.58725ZM5.36502 6.69101L8.20118 13.0914L6.98209 13.6311L4.14502 7.23273L5.36502 6.69101ZM14.3435 17.9287C14.5533 17.985 14.7357 18.1151 14.8568 18.2953C14.9932 18.4891 15.0601 18.7234 15.047 18.9601C15.0352 19.1244 14.8945 19.3344 14.7955 19.3344H6.40939C6.31433 19.3347 6.22658 19.2829 6.1808 19.1995C6.13518 19.1162 6.13869 19.0144 6.19011 18.9343C6.23192 18.868 6.30181 18.8244 6.37979 18.8157L13.4178 18.0066C13.5178 17.9953 13.6162 17.9789 13.7155 17.9622C13.9208 17.914 14.1331 17.9021 14.3426 17.9273L14.3435 17.9287ZM12.8502 16.5081C13.0446 16.7595 13.0894 17.0958 12.9674 17.3892L6.38711 18.1443C6.37811 18.1443 6.36773 18.1443 6.34546 18.1276C6.25634 18.0338 6.20446 17.9108 6.19912 17.7816C6.17943 17.5751 6.32669 17.3901 6.53239 17.3633L11.4117 16.3362C11.5023 16.3175 11.592 16.2948 11.6817 16.2718L11.7757 16.2481C12.3074 16.1158 12.6178 16.1912 12.8491 16.5069L12.8502 16.5081ZM11.0947 14.8241C11.2316 14.9628 11.3059 15.1514 11.3004 15.3461C11.2977 15.4777 11.2519 15.6046 11.1699 15.7075L6.91113 16.6026C6.74388 16.6392 6.57038 16.5776 6.46372 16.4436C6.36911 16.3212 6.35599 16.1544 6.43045 16.0188C6.49912 15.8749 6.60578 15.8315 6.90152 15.7412L9.989 14.7971C10.483 14.6457 10.8266 14.5664 11.0936 14.8227L11.0947 14.8241ZM9.52129 13.6033L9.76987 14.1701L6.69811 15.1058C6.6508 15.1204 6.60136 15.1361 6.55177 15.1528C6.5246 15.0998 6.50141 15.0449 6.48249 14.9884C6.44876 14.8966 6.4448 14.7966 6.47104 14.7025C6.51972 14.5691 6.66377 14.4988 6.89404 14.3977L6.93982 14.3774C6.94241 14.3774 6.94516 14.3774 6.94775 14.3758L9.0812 13.4316C9.24951 13.3576 9.44591 13.4339 9.52022 13.6021L9.52129 13.6033Z" fill="#B7B7B7"/>
<path d="M2.7903 1.74873C2.77275 1.56561 2.61009 1.43133 2.42697 1.44873C2.1938 1.47757 1.96964 1.55631 1.76959 1.67945C1.33484 1.95107 1.10244 2.45464 1.17782 2.96172C1.19491 3.13201 1.33804 3.26157 1.50926 3.26187H1.54252C1.63057 3.25333 1.7116 3.2103 1.76791 3.14209C1.82406 3.07388 1.85092 2.98613 1.84253 2.89808C1.8114 2.70505 1.86496 2.5079 1.98963 2.35728C2.11415 2.20652 2.29772 2.11694 2.4932 2.11145C2.67494 2.09222 2.80739 1.93062 2.7903 1.74873Z" fill="#B7B7B7"/>
</svg>
