<svg width="13" height="20" viewBox="0 0 13 20" fill="none" xmlns="http://www.w3.org/2000/svg">
<path d="M3.88085 20C3.83702 20 3.79216 19.992 3.7497 19.9746C3.60348 19.9156 3.51821 19.7671 3.54287 19.6149L4.83761 11.5388L0.405147 12.3428C0.265434 12.3682 0.126748 12.3081 0.05244 12.1923C-0.0222106 12.0762 -0.0167317 11.9276 0.0661373 11.8172L8.85505 0.136488C8.94785 0.0130066 9.1153 -0.0330487 9.26083 0.0246872C9.40636 0.082757 9.49266 0.229266 9.4704 0.380781L8.22771 8.91269L12.3095 8.01762C12.4492 7.98691 12.5927 8.04398 12.6711 8.16045C12.7495 8.27659 12.7454 8.42844 12.6612 8.54058L4.1572 19.8635C4.09111 19.9513 3.98735 20 3.88085 20ZM5.25093 10.7906C5.33928 10.7906 5.42489 10.824 5.48926 10.8847C5.56905 10.9605 5.60603 11.0689 5.58891 11.1757L4.43696 18.3607L11.5692 8.8643L7.89418 9.66993C7.7846 9.69429 7.66954 9.66393 7.58701 9.58984C7.50449 9.51575 7.46442 9.40595 7.48017 9.29748L8.60062 1.60325L1.13008 11.5318L5.18826 10.7963C5.20881 10.7926 5.2297 10.7906 5.25093 10.7906Z" fill="#B7B4B4"/>
</svg>
